<?xml version="1.0" encoding="UTF-8"?>
<svg viewBox="0 0 400 600" xmlns="http://www.w3.org/2000/svg">
  <path
    d="M200,50 C300,50 350,100 350,200 C350,300 300,400 200,400 C100,400 50,300 50,200 C50,100 100,50 200,50 Z
       M150,140 C125,140 115,160 115,175 C115,190 125,205 150,205 C175,205 185,190 185,175 C185,160 175,140 150,140 Z
       M250,140 C225,140 215,160 215,175 C215,190 225,205 250,205 C275,205 285,190 285,175 C285,160 275,140 250,140 Z
       M200,240 C175,240 150,255 200,285 C250,255 225,240 200,240 Z
       M175,290 L225,290 C250,340 225,385 200,385 C175,385 150,340 175,290 Z"
  />
</svg>
