<?xml version="1.0" encoding="UTF-8"?>
<svg viewBox="0 0 400 600" xmlns="http://www.w3.org/2000/svg">
  <path
    d="M200,50 C320,50 380,120 380,200 C380,280 340,400 200,400 C60,400 20,280 20,200 C20,120 80,50 200,50 Z
       M130,130 C100,130 85,150 85,170 C85,190 100,210 130,210 C160,210 175,190 175,170 C175,150 160,130 130,130 Z
       M270,130 C240,130 225,150 225,170 C225,190 240,210 270,210 C300,210 315,190 315,170 C315,150 300,130 270,130 Z
       M200,230 C160,230 120,260 200,300 C280,260 240,230 200,230 Z
       M160,310 L240,310 C280,350 240,390 200,390 C160,390 120,350 160,310 Z"
  />
</svg>
