<?xml version="1.0" encoding="UTF-8"?>
<svg viewBox="0 0 2569.679 5000" xmlns="http://www.w3.org/2000/svg">
  <path
    d="M2549.91,1119.388c-19.441-119.702-61.918-263.263-133.085-407.023c89.27-31.646,152.854-111.828,152.854-205.554 c0-197.255-259.033-293.872-406.953-153.762C1961.397,150.344,1673.147,0,1273.982,0C924.717,0,625.417,120.492,402.916,349.324 C253.739,214.589,0,311.545,0,506.811c0,94.768,64.971,175.723,155.799,206.628C70.146,899.623,44.337,1062.215,37.221,1123.81 c-4.907,42.655-13.501,54.226-4.923,116.52c29.164,232.879,184.753,439.164,377.257,599.865 c-90.082,169.21-55.549,389.28,25.288,561.703c-141.438,323.81-212.127,773.728,1.338,1070.084 c0.269,207.542,82.675,318.043,168.887,352.92c85.018,34.409,196.347-0.736,276.608-60.999 c36.656,10.819,81.546,22.37,123.566,29.427c-0.124,146.436,31.136,244.913,75.081,360.805 c99.299,261.94,161.771,437.82,21.671,622.472C1003.963,4905.795,919.751,5000,1080.64,5000c12.985,0,28.325-0.408,48.298-1.274 c188.741-8.202,474.917-258.093,471.181-550.524c-3.273-254.448-84.707-423.63-24.407-641.288 c50.34-7.863,98.407-18.463,144.13-31.813c59.101,40.333,124.83,63.046,186.962,63.046 c169.107-0.049,239.904-182.394,242.882-353.662c72.415-102.052,117.773-224.543,133.128-362.691 c29.803-268.181-34.909-507.246-93.661-718.696c82.637-175.552,117.16-400.25,21.736-570.545 c238.673-211.084,340.826-444.711,349.415-615.113C2564.073,1179.563,2555.339,1152.706,2549.91,1119.388z"
  />
</svg>
